<mxfile host="app.diagrams.net" agent="Mozilla/5.0 (Windows NT 10.0; Win64; x64) AppleWebKit/537.36 (KHTML, like Gecko) Chrome/130.0.0.0 Safari/537.36 Edg/130.0.0.0" version="24.8.3">
  <diagram name="JDE" id="MskyFwzk79bmjXoT714X">
    <mxGraphModel dx="2019" dy="1145" grid="1" gridSize="10" guides="1" tooltips="1" connect="1" arrows="1" fold="1" page="1" pageScale="1" pageWidth="1169" pageHeight="827" math="0" shadow="0">
      <root>
        <mxCell id="0" />
        <mxCell id="1" parent="0" />
        <mxCell id="N6JY_K1M5BdzW5Xi1SsG-3" style="edgeStyle=orthogonalEdgeStyle;rounded=0;orthogonalLoop=1;jettySize=auto;html=1;exitX=1;exitY=0.25;exitDx=0;exitDy=0;entryX=0;entryY=0.25;entryDx=0;entryDy=0;" edge="1" parent="1" source="N6JY_K1M5BdzW5Xi1SsG-1" target="N6JY_K1M5BdzW5Xi1SsG-2">
          <mxGeometry relative="1" as="geometry" />
        </mxCell>
        <mxCell id="N6JY_K1M5BdzW5Xi1SsG-1" value="&lt;font style=&quot;font-size: 24px;&quot;&gt;MES&lt;/font&gt;" style="rounded=1;whiteSpace=wrap;html=1;" vertex="1" parent="1">
          <mxGeometry x="80" y="160" width="120" height="120" as="geometry" />
        </mxCell>
        <mxCell id="N6JY_K1M5BdzW5Xi1SsG-2" value="&lt;font style=&quot;font-size: 24px;&quot;&gt;JDE&lt;/font&gt;" style="rounded=1;whiteSpace=wrap;html=1;" vertex="1" parent="1">
          <mxGeometry x="600" y="160" width="120" height="120" as="geometry" />
        </mxCell>
        <mxCell id="N6JY_K1M5BdzW5Xi1SsG-4" style="edgeStyle=orthogonalEdgeStyle;rounded=0;orthogonalLoop=1;jettySize=auto;html=1;exitX=0.5;exitY=1;exitDx=0;exitDy=0;" edge="1" parent="1" source="N6JY_K1M5BdzW5Xi1SsG-2" target="N6JY_K1M5BdzW5Xi1SsG-2">
          <mxGeometry relative="1" as="geometry" />
        </mxCell>
        <mxCell id="N6JY_K1M5BdzW5Xi1SsG-5" value="&lt;h1 style=&quot;margin-top: 0px;&quot;&gt;1.建立工單&lt;/h1&gt;&lt;p&gt;Lorem ipsum dolor sit amet, consectetur adipisicing elit, sed do eiusmod tempor incididunt ut labore et dolore magna aliqua.&lt;/p&gt;" style="text;html=1;whiteSpace=wrap;overflow=hidden;rounded=0;" vertex="1" parent="1">
          <mxGeometry x="80" y="70" width="720" height="80" as="geometry" />
        </mxCell>
      </root>
    </mxGraphModel>
  </diagram>
</mxfile>
